<?xml version="1.0" encoding="UTF-8" standalone="no"?>
<svg
   width="150mm"
   height="160mm"
   viewBox="0 0 150 160"
   version="1.1"
   id="svg2791"
   inkscape:version="1.1 (c68e22c387, 2021-05-23)"
   sodipodi:docname="liquidMS-powered.svg"
   inkscape:export-filename="/home/martin/pictures/liquidMS-logo-export_new.png"
   inkscape:export-xdpi="100"
   inkscape:export-ydpi="100"
   xmlns:inkscape="http://www.inkscape.org/namespaces/inkscape"
   xmlns:sodipodi="http://sodipodi.sourceforge.net/DTD/sodipodi-0.dtd"
   xmlns="http://www.w3.org/2000/svg"
   xmlns:svg="http://www.w3.org/2000/svg"
   xmlns:rdf="http://www.w3.org/1999/02/22-rdf-syntax-ns#"
   xmlns:cc="http://creativecommons.org/ns#"
   xmlns:dc="http://purl.org/dc/elements/1.1/">
  <defs
     id="defs2785" />
  <sodipodi:namedview
     id="base"
     pagecolor="#ffffff"
     bordercolor="#666666"
     borderopacity="1.0"
     inkscape:pageopacity="0.0"
     inkscape:pageshadow="2"
     inkscape:zoom="1.2685772"
     inkscape:cx="244.76239"
     inkscape:cy="323.985"
     inkscape:document-units="mm"
     inkscape:current-layer="layer1"
     inkscape:document-rotation="0"
     showgrid="false"
     inkscape:window-width="1920"
     inkscape:window-height="1028"
     inkscape:window-x="0"
     inkscape:window-y="26"
     inkscape:window-maximized="1"
     inkscape:pagecheckerboard="0" />
  <metadata
     id="metadata2788">
    <rdf:RDF>
      <cc:Work
         rdf:about="">
        <dc:format>image/svg+xml</dc:format>
        <dc:type
           rdf:resource="http://purl.org/dc/dcmitype/StillImage" />
      </cc:Work>
    </rdf:RDF>
  </metadata>
  <g
     inkscape:label="Ebene 1"
     inkscape:groupmode="layer"
     id="layer1">
    <g
       aria-label="MS"
       id="text891"
       style="font-style:normal;font-weight:normal;font-size:10.5833px;line-height:1.25;font-family:sans-serif;fill:none;fill-opacity:1;stroke:#fcdf0f;stroke-width:0.57342329;stroke-linejoin:round;stroke-miterlimit:4;stroke-dasharray:none;stroke-opacity:1"
       transform="matrix(1.2304271,0,0,1.2304271,-87.117912,97.547073)">
      <path
         d="m 136.03954,41.417011 5.6224,-23.42664 h 8.43359 l 2.81119,11.71332 2.8112,-11.71332 h 8.43359 l 5.62239,23.42664 h -7.02799 l -2.81119,-11.71332 -2.8112,11.71332 h -8.43359 l -2.8112,-11.71332 -2.8112,11.71332 z"
         style="font-style:normal;font-variant:normal;font-weight:normal;font-stretch:normal;font-size:29.9861px;font-family:NiseSegaSonic;-inkscape-font-specification:'NiseSegaSonic, Normal';font-variant-ligatures:normal;font-variant-caps:normal;font-variant-numeric:normal;font-variant-east-asian:normal;fill:none;fill-opacity:1;stroke:#fcdf0f;stroke-width:0.57342329;stroke-linejoin:round;stroke-miterlimit:4;stroke-dasharray:none;stroke-opacity:1"
         id="path883" />
      <path
         d="m 169.83247,25.223346 q 0,-3.367579 2.86976,-5.563827 2.89905,-2.196247 7.61366,-2.049831 4.27536,-0.146416 8.93141,0.468533 l -1.66915,5.94451 q -1.90342,-0.26355 -5.00744,-0.234266 -3.07475,0.02928 -3.36758,0.995632 -0.29284,0.966349 0.76136,1.317748 1.0542,0.322117 3.66041,0.5271 2.72335,0.204983 4.68533,1.991264 1.99127,1.756998 1.99127,5.066011 0.14641,3.455429 -2.60622,5.76881 -2.72334,2.313381 -6.44232,2.196248 -3.74827,0.351399 -10.24916,-0.3514 l 1.90342,-5.94451 q 7.40867,0.322116 8.02362,-0.702799 0.64423,-1.024916 -0.55638,-1.493448 -1.08348,-0.380683 -3.1626,-0.380683 -2.07911,-0.02928 -4.62676,-1.639865 -2.8112,-2.108398 -2.75263,-5.915227 z"
         style="font-style:normal;font-variant:normal;font-weight:normal;font-stretch:normal;font-size:29.9861px;font-family:NiseSegaSonic;-inkscape-font-specification:'NiseSegaSonic, Normal';font-variant-ligatures:normal;font-variant-caps:normal;font-variant-numeric:normal;font-variant-east-asian:normal;fill:none;fill-opacity:1;stroke:#fcdf0f;stroke-width:0.57342329;stroke-linejoin:round;stroke-miterlimit:4;stroke-dasharray:none;stroke-opacity:1"
         id="path885" />
    </g>
    <path
       id="path3423"
       style="font-style:normal;font-variant:normal;font-weight:normal;font-stretch:normal;font-size:31.75px;line-height:1.25;font-family:'Deftone Stylus';-inkscape-font-specification:'Deftone Stylus, Normal';font-variant-ligatures:normal;font-variant-caps:normal;font-variant-numeric:normal;font-variant-east-asian:normal;fill:#35d1ff;fill-opacity:1;stroke:none;stroke-width:3.28114;stroke-miterlimit:4;stroke-dasharray:none;stroke-opacity:0.984314"
       d="M 63.042969 468.60352 C 57.727524 468.60352 52.853366 469.88211 48.423828 472.44141 C 43.600554 475.29601 40.008904 479.33182 37.646484 484.54883 L 10.183594 546.11914 C 9.5929889 547.49721 9.296875 548.92583 9.296875 550.40234 C 9.296875 554.83187 11.019648 558.37546 14.464844 561.0332 C 17.614737 563.49405 21.5025 564.72461 26.128906 564.72461 C 32.625561 564.72461 39.466651 562.70573 46.652344 558.66992 C 48.082668 557.86537 49.426043 557.02903 50.6875 556.16602 C 50.886215 558.30251 51.705834 560.22271 53.148438 561.91992 C 54.821816 563.79015 56.938759 564.72266 59.498047 564.72266 C 66.388439 564.72266 73.869802 562.45959 81.941406 557.93164 C 81.968164 557.91688 81.992834 557.90149 82.019531 557.88672 C 83.581178 562.64 88.671305 565.01953 97.296875 565.01953 C 98.281218 565.01953 99.363711 564.87148 100.54492 564.57617 L 90.0625 588.05273 L 110.29102 588.05273 L 122.69336 560.44141 C 123.6777 561.13046 124.9563 561.47461 126.53125 561.47461 C 129.70889 561.47461 133.50034 560.18798 137.89844 557.625 C 139.35773 562.55266 144.47349 565.01953 153.25586 565.01953 C 157.58696 565.01953 161.57473 563.44481 165.2168 560.29492 C 165.70897 563.24794 167.52979 564.72461 170.67969 564.72461 C 177.57008 564.72461 185.05144 562.45962 193.12305 557.93164 C 193.27628 557.84611 193.421 557.75958 193.57227 557.67383 C 193.95076 559.21485 194.68436 560.62981 195.7793 561.91797 C 197.45268 563.78823 199.56962 564.72461 202.12891 564.72461 C 209.0193 564.72461 216.50066 562.45963 224.57227 557.93164 C 225.53331 557.40141 226.45299 556.86703 227.33594 556.32812 C 228.11015 562.31744 233.28903 565.31445 242.88086 565.31445 C 246.12919 565.31445 249.67279 563.83779 253.51172 560.88477 C 253.70859 563.64092 255.97163 565.01953 260.30273 565.01953 C 267.19313 565.01953 274.67449 562.80453 282.74609 558.375 C 291.21143 553.65016 296.67391 548.57991 299.13477 543.16602 L 299.13477 543.01953 L 295.29688 537.70312 C 291.16264 542.42796 287.96321 545.57739 285.69922 547.15234 C 281.46655 550.00692 278.07101 551.43555 275.51172 551.43555 C 274.23207 551.43555 273.5918 550.89331 273.5918 549.81055 C 273.5918 549.61358 273.64179 549.41749 273.74023 549.2207 L 309.4707 468.89844 L 288.0625 468.89844 L 269.16211 511.27344 C 267.48873 510.68282 265.71791 510.38867 263.84766 510.38867 C 257.25257 510.38867 251.0498 513.04588 245.24219 518.36133 C 240.32048 522.8893 236.33466 528.5979 233.2832 535.48828 L 231.2168 540.21289 C 230.27136 542.34888 229.49583 544.33289 228.88672 546.16992 C 228.77672 546.25116 228.67057 546.33263 228.55859 546.41406 C 224.32592 549.56396 220.73232 551.14062 217.7793 551.14062 C 216.30278 551.14063 215.56445 550.50038 215.56445 549.2207 C 215.56445 548.63011 215.7625 547.84176 216.15625 546.85742 L 229.88672 515.99805 C 229.88672 515.99805 224.80734 504.84309 216.59375 512.91016 L 196.21875 547.04492 C 192.28326 549.77312 188.98673 551.14062 186.33008 551.14062 C 184.85357 551.14063 184.11523 550.50035 184.11523 549.2207 C 184.11523 548.53167 184.3133 547.74332 184.70703 546.85742 L 198.29102 515.99805 L 181.90039 506.99219 L 162.70703 550.25391 C 161.13208 553.9944 159.3093 555.86523 157.24219 555.86523 C 156.06098 555.86523 155.4707 555.17497 155.4707 553.79688 C 155.4707 552.51723 155.81682 551.09055 156.50586 549.51562 L 173.33789 511.86523 L 153.99414 511.86523 L 141.5918 539.77148 C 140.16742 542.92546 139.116 545.74741 138.42773 548.24414 C 135.29094 550.17188 132.60426 551.14062 130.37109 551.14062 C 128.79615 551.14062 128.00781 550.50035 128.00781 549.2207 C 128.00781 548.63011 128.25392 547.84176 128.74609 546.85742 L 144.25 511.86523 L 130.66602 511.86523 L 129.33789 514.81836 C 126.68017 511.57003 122.93851 509.94531 118.11523 509.94531 C 111.61858 509.94531 105.46777 512.65254 99.660156 518.06641 C 94.738448 522.59438 90.750678 528.30295 87.699219 535.19336 L 85.632812 539.77148 C 84.083266 543.14728 82.969387 546.16403 82.291016 548.82422 C 79.597404 550.36719 77.217233 551.14062 75.150391 551.14062 C 73.67388 551.14062 72.933594 550.50038 72.933594 549.2207 C 72.933594 548.63011 73.131651 547.84176 73.525391 546.85742 L 87.255859 516 C 87.255859 516 85.526461 504.15677 74.75 511.14844 L 58.972656 537.88672 L 58.613281 537.4082 C 56.9399 541.34556 53.642411 544.83916 48.720703 547.89062 C 43.897429 550.84365 39.467441 552.32031 35.431641 552.32031 C 32.380181 552.32031 30.853516 551.23781 30.853516 549.07227 C 30.853516 548.28479 31.099626 547.3984 31.591797 546.41406 L 39.269531 529.14062 C 52.853448 523.92362 62.501757 514.91559 68.210938 502.11914 L 77.806641 480.5625 C 78.298813 479.47972 78.544922 478.44528 78.544922 477.46094 C 78.544922 474.60634 76.724097 472.3433 73.082031 470.66992 C 70.030572 469.29183 66.685032 468.60352 63.042969 468.60352 z M 63.927734 479.08594 C 65.404245 479.08594 66.142578 479.57813 66.142578 480.5625 C 66.044134 480.75944 65.996094 480.95556 65.996094 481.15234 L 56.544922 502.11914 C 53.198158 509.60014 49.556506 513.83402 45.619141 514.81836 C 52.312664 499.95481 57.282922 488.8318 60.53125 481.44922 C 61.220291 479.87426 62.352788 479.08594 63.927734 479.08594 z M 92.826172 482.92383 C 90.856437 482.92383 87.895516 483.25989 85.925781 483.91602 C 87.349076 483.57359 88.770065 483.40234 90.193359 483.40234 C 92.457338 483.40234 94.251621 484.03714 96.023438 485.02148 C 97.79525 486.00582 98.689453 488.18443 98.689453 490.05469 C 98.535815 493.79903 97.233503 496.10319 93.941406 497.39844 C 93.28302 497.69362 89.170109 499.0698 88.511719 499.29688 C 95.801993 498.76649 101.53711 496.76938 101.53711 488.68164 C 101.53711 486.81138 100.65072 485.38668 98.878906 484.40234 C 97.10709 483.418 95.090158 482.92383 92.826172 482.92383 z M 117.37695 518.65625 C 119.05033 518.65625 119.88672 519.24653 119.88672 520.42773 C 119.88672 520.6246 119.83868 520.9207 119.74023 521.31445 L 106.74609 550.25391 C 105.07271 553.9944 103.25189 555.86523 101.2832 555.86523 C 100.10199 555.86523 99.511719 555.17497 99.511719 553.79688 C 99.511719 552.51723 99.855881 551.09055 100.54492 549.51562 L 113.0957 521.46094 C 113.88318 519.5907 115.30984 518.65625 117.37695 518.65625 z M 262.96094 519.24805 C 264.04371 519.24805 264.78205 519.5422 265.17578 520.13281 L 250.85352 552.32031 C 249.6723 554.97803 248.14759 556.30664 246.27734 556.30664 C 245.19457 556.30664 244.65234 555.71636 244.65234 554.53516 C 244.65234 553.64926 244.94846 552.56676 245.53906 551.28711 L 258.53125 521.9043 C 259.31872 520.13248 260.79539 519.24805 262.96094 519.24805 z "
       transform="scale(0.26458333)" />
    <path
       id="path1650"
       style="fill:#35d1ff;fill-opacity:1;stroke:none;stroke-width:6.9939;stroke-linecap:butt;stroke-linejoin:miter;stroke-miterlimit:4;stroke-dasharray:none;stroke-opacity:1"
       d="m 185.14258,22.53125 c -0.22192,0.0043 0.0899,0.567038 0.31054,0.595703 1.23429,0.160362 2.4987,-0.01882 3.76368,0.0059 1.26694,0.02472 2.54556,0.0725 3.83203,0.142579 1.28647,0.07007 2.58177,0.162503 3.88672,0.277343 1.30495,0.11484 2.61901,0.251143 3.9414,0.410157 1.3224,0.159013 2.6534,0.340374 3.99219,0.542968 1.3388,0.202595 2.68491,0.426292 4.03906,0.671875 1.35416,0.245584 2.71551,0.512801 4.08399,0.800782 1.36848,0.28798 2.74519,0.597949 4.12695,0.927734 1.38177,0.329785 2.77005,0.679784 4.16406,1.050781 1.39401,0.370997 2.79206,0.762212 4.19727,1.173828 1.40521,0.411617 2.81704,0.843278 4.23242,1.294922 1.41538,0.451645 2.83527,0.922983 4.25977,1.414063 1.4245,0.491079 2.85257,1.00328 4.28515,1.533203 1.43259,0.529923 2.86897,1.078311 4.3086,1.646484 1.43963,0.568174 2.88249,1.155887 4.32812,1.761719 1.44564,0.605832 2.8951,1.230148 4.3457,1.873047 1.45061,0.642898 2.9029,1.303049 4.35743,1.982422 1.45452,0.679372 2.91172,1.378496 4.36914,2.09375 1.45741,0.715254 2.91574,1.446722 4.375,2.197265 1.45926,0.750544 2.91884,1.519447 4.3789,2.304688 1.46007,0.785241 2.91908,1.586904 4.37891,2.40625 1.45983,0.819346 2.92035,1.656907 4.37891,2.509766 1.45856,0.852858 2.9168,1.721643 4.37304,2.607421 1.45625,0.885779 2.91039,1.786972 4.36328,2.705079 1.4529,0.918106 2.90306,1.852891 4.35157,2.802734 1.4485,0.949843 2.89482,1.915498 4.33789,2.896484 1.44307,0.980987 2.88371,1.976744 4.32031,2.988282 1.4366,1.011537 2.86974,2.038581 4.29883,3.080078 1.42909,1.041496 2.85485,2.099058 4.27539,3.169922 1.42053,1.070863 2.83515,2.156221 4.24609,3.255859 1.41095,1.099638 2.81844,2.212023 4.21875,3.339844 1.40032,1.12782 2.79495,2.270371 4.1836,3.425781 1.38864,1.15541 2.77055,2.323451 4.14648,3.505859 1.37593,1.182408 2.74524,2.379078 4.10742,3.587891 1.36219,1.208813 2.71706,2.431389 4.06445,3.666016 1.3474,1.234626 2.68797,2.480386 4.01954,3.740234 1.33156,1.259847 2.65405,2.533883 3.96875,3.818357 1.31469,1.28448 2.62118,2.58016 3.91797,3.88867 1.29678,1.30852 2.58348,2.62898 3.86132,3.96094 1.27784,1.33196 2.54684,2.67644 3.80469,4.03125 1.25785,1.35481 2.50537,2.72059 3.74219,4.09766 1.23682,1.37706 2.46298,2.76532 3.67773,4.16406 1.21476,1.39873 2.41773,2.80675 3.60938,4.22656 1.19164,1.41981 2.37156,2.85072 3.53906,4.29102 1.1675,1.44029 2.32253,2.89138 3.46484,4.35156 1.14232,1.46018 2.27259,2.92872 3.38868,4.4082 1.11608,1.47948 2.21782,2.96861 3.30664,4.4668 1.08881,1.49819 2.16409,3.00518 3.22461,4.52148 1.06051,1.51631 2.10555,3.04235 3.13671,4.57618 1.03117,1.53382 2.04805,3.0762 3.04883,4.62695 1.00078,1.55075 1.98573,3.11064 2.95508,4.67773 0.96936,1.56709 1.92249,3.14178 2.85938,4.72461 0.93688,1.58284 1.85833,3.1735 2.76171,4.77149 0.90339,1.59798 1.78937,3.20386 2.65821,4.8164 0.86884,1.61255 1.71948,3.23091 2.55273,4.85743 0.83326,1.62651 1.64868,3.2605 2.44531,4.90039 0.79663,1.63989 1.57502,3.28678 2.33399,4.93945 0.75896,1.65267 1.49849,3.3117 2.21875,4.97656 0.72026,1.66487 1.42104,3.33526 2.10156,5.01172 0.68052,1.67646 1.34073,3.35745 1.98047,5.04492 0.63974,1.68747 1.25951,3.38024 1.85742,5.07813 0.59791,1.69788 1.17542,3.40167 1.73047,5.10937 0.55505,1.70771 1.08846,3.41979 1.59961,5.13672 0.51115,1.71694 1.01499,3.43416 1.46484,5.16406 0.43416,1.66957 0.80176,3.35652 1.15235,5.04688 0.35058,1.69036 0.66807,3.38825 0.95117,5.0918 0.2831,1.70354 0.53274,3.41364 0.74805,5.12695 0.2153,1.7133 0.39576,3.43076 0.54296,5.15039 0.14721,1.71963 0.26104,3.44153 0.33985,5.16406 0.0788,1.72253 0.12271,3.44597 0.13281,5.16797 0.0101,1.722 -0.0134,3.44212 -0.0723,5.16016 -0.0589,1.71803 -0.15304,3.43388 -0.28125,5.14453 -0.12822,1.71064 -0.29045,3.41541 -0.48829,5.11523 -0.19783,1.69983 -0.43146,3.3945 -0.69921,5.08008 -0.26776,1.68558 -0.57022,3.36335 -0.90821,5.03125 -0.33798,1.6679 -0.71063,3.32586 -1.11914,4.97266 -0.40851,1.64679 -0.85268,3.28204 -1.33203,4.90429 -0.23967,0.81113 -0.48865,1.61948 -0.74609,2.42383 -0.25744,0.80435 -0.52359,1.6052 -0.79883,2.40235 -0.27524,0.79714 -0.55848,1.58939 -0.85156,2.3789 -0.29309,0.78951 -0.59529,1.57597 -0.90625,2.35742 -0.31097,0.78145 -0.63206,1.55908 -0.96094,2.33204 -0.32888,0.77295 -0.66488,1.54064 -1.01172,2.30468 -0.34684,0.76404 -0.70353,1.52266 -1.06836,2.27735 -0.36483,0.75469 -0.73823,1.50508 -1.12109,2.25 -0.38287,0.74491 -0.77485,1.48599 -1.17578,2.2207 -0.40094,0.73471 -0.81143,1.46343 -1.23047,2.1875 -0.41904,0.72407 -0.84797,1.44324 -1.28516,2.15625 -0.43719,0.71301 -0.88252,1.41958 -1.33789,2.12109 -0.45537,0.70152 -0.91898,1.3983 -1.39258,2.08789 -0.47359,0.6896 -0.95736,1.37158 -1.44922,2.04883 -0.49185,0.67725 -0.9918,1.3492 -1.50195,2.01367 -0.51015,0.66447 -1.03011,1.3214 -1.55859,1.97266 -0.52849,0.65126 -1.06642,1.29597 -1.61329,1.93359 -0.54686,0.63763 -1.10269,1.26902 -1.66796,1.89258 -0.56528,0.62357 -1.14089,1.24054 -1.72461,1.84961 -0.58373,0.60907 -1.17513,1.21054 -1.77735,1.80469 -0.60221,0.59415 -1.2152,1.18096 -1.83593,1.75976 -0.62074,0.57881 -1.24937,1.14987 -1.88868,1.71289 -0.6393,0.56303 -1.28936,1.11725 -1.94726,1.66407 -0.65791,0.54681 -1.32346,1.08505 -2,1.61523 -0.67655,0.53018 -1.36337,1.05329 -2.0586,1.56641 -0.69522,0.51311 -1.39934,1.01609 -2.11328,1.51172 -0.71394,0.49562 -1.43722,0.98323 -2.16992,1.46093 -0.73269,0.47771 -1.47507,0.9469 -2.22656,1.40625 -0.75149,0.45936 -1.51289,0.90904 -2.2832,1.34961 -0.77032,0.44058 -1.54871,0.87161 -2.33789,1.29297 -0.78919,0.42137 -1.5884,0.83265 -2.39649,1.23438 -0.80809,0.40173 -1.62609,0.79411 -2.45312,1.17578 -0.82704,0.38166 -1.66375,0.75211 -2.50977,1.11328 -0.84602,0.36117 -1.70136,0.71248 -2.56641,1.05273 -0.86504,0.34025 -1.73894,0.66939 -2.62304,0.98829 -0.8841,0.31889 -1.77845,0.62866 -2.68164,0.92578 -0.9032,0.29712 -1.81595,0.58251 -2.73829,0.85742 -0.92233,0.27491 -1.85341,0.53874 -2.79492,0.79101 -1.35803,0.36389 -2.73224,0.69975 -4.11914,1.00782 -1.3869,0.30806 -2.78718,0.58873 -4.19922,0.83984 -1.41203,0.25111 -2.83609,0.47299 -4.26953,0.66602 -1.43344,0.19302 -2.87702,0.35643 -4.32812,0.49023 -1.45111,0.1338 -2.90997,0.2371 -4.375,0.31055 -1.46504,0.0734 -2.93493,0.11695 -4.41016,0.1289 -1.47523,0.012 -2.95581,-0.008 -4.4375,-0.0586 -1.48169,-0.0507 -2.9648,-0.13166 -4.44922,-0.24609 -1.48442,-0.11444 -2.96971,-0.26208 -4.45312,-0.44141 -1.48341,-0.17933 -2.9647,-0.39135 -4.44336,-0.63672 -1.47866,-0.24536 -2.95365,-0.52341 -4.42383,-0.83594 -1.47018,-0.31253 -2.93656,-0.65823 -4.39453,-1.03906 -1.45797,-0.38083 -2.90759,-0.79778 -4.34961,-1.24805 -1.44202,-0.45026 -2.8765,-0.93424 -4.29883,-1.45507 -1.42233,-0.52084 -2.83351,-1.07739 -4.23242,-1.66993 -0.69946,-0.29627 -1.39499,-0.6016 -2.08789,-0.91601 -0.6929,-0.31441 -1.38248,-0.63801 -2.06836,-0.9707 -0.68588,-0.33269 -1.36849,-0.67428 -2.04688,-1.02539 -0.67838,-0.35112 -1.353,-0.71236 -2.02343,-1.08204 -0.67044,-0.36967 -1.33604,-0.74833 -1.99805,-1.13672 -0.66201,-0.38838 -1.31954,-0.78612 -1.97266,-1.19335 -0.65312,-0.40724 -1.30155,-0.82378 -1.94531,-1.25 -0.64376,-0.42623 -1.28403,-0.86129 -1.91797,-1.30665 -0.0335,-0.0235 -0.13188,-0.0975 -0.0996,-0.0723 24.47987,19.11785 57.59477,22.82228 84.62305,15.58008 60.25628,-16.14562 81.90156,-79.2687 67.83789,-132.65039 C 392.13159,117.37644 264.90752,20.97466 185.14258,22.53125 Z"
       transform="scale(0.26458333)"
       sodipodi:nodetypes="ssssssssssssssssssssssssssssssssssssssssssssssssssssssssssssssssssssssssssssssssssssssssssssssssssssssssssssssssssssssssssssssssssssssssssssssss" />
    <path
       style="fill:none;stroke:#adf7ff;stroke-width:1.05833333;stroke-linecap:round;stroke-linejoin:miter;stroke-miterlimit:4;stroke-dasharray:none;stroke-opacity:1;fill-opacity:1"
       d="m 76.46804,50.246716 c 34.98184,-5.619994 34.66139,41.295479 10e-7,34.793084"
       id="path1635"
       sodipodi:nodetypes="cc" />
    <path
       id="path2006"
       style="fill:none;fill-opacity:0.835294;stroke:#35d1ff;stroke-width:1.33333;stroke-linecap:butt;stroke-linejoin:miter;stroke-miterlimit:4;stroke-dasharray:5.33333, 2.66667;stroke-dashoffset:4.53334;stroke-opacity:0.835294"
       d="M 223.2168 229.08203 C 224.97551 231.59826 226.73733 234.10393 228.51562 236.58398 C 227.49293 233.76251 225.68802 231.26852 223.2168 229.08203 z "
       transform="scale(0.26458333)" />
    <path
       id="path2121"
       style="fill:none;fill-opacity:0.835294;stroke:#35d1ff;stroke-width:1.33333;stroke-linecap:butt;stroke-linejoin:miter;stroke-miterlimit:4;stroke-dasharray:5.33333, 2.66667;stroke-dashoffset:4.53334;stroke-opacity:0.835294"
       d="M 156.26953 146.21289 C 123.58193 156.20901 94.79364 176.81428 76 217.48828 L 87.935547 220.6875 L 90.220703 221.29883 L 88.611328 227.30273 C 134.5267 214.05467 202.43269 210.69269 223.2168 229.08203 C 203.57858 200.98515 184.6922 170.96369 156.26953 146.21289 z "
       transform="scale(0.26458333)" />
    <rect
       style="opacity:0.99;fill:none;fill-opacity:1;stroke:#35d1ff;stroke-width:0.52916667;stroke-linecap:round;stroke-linejoin:round;stroke-miterlimit:4;stroke-dasharray:0.52916667,1.5875;stroke-dashoffset:0;stroke-opacity:0.835294;paint-order:stroke fill markers"
       id="rect1809"
       width="9.4205132"
       height="9.4205132"
       x="28.791365"
       y="50.378628"
       rx="0.62574327"
       ry="1.03599e-14"
       transform="rotate(14.999999)" />
    <path
       id="path2002"
       style="fill:none;fill-opacity:0.835294;stroke:#35d1ff;stroke-width:1.33333;stroke-linecap:butt;stroke-linejoin:miter;stroke-miterlimit:4;stroke-dasharray:5.33333, 2.66667;stroke-dashoffset:4.53334;stroke-opacity:0.835294"
       d="M 207.51367,79.929688 C 190.4902,72.836413 173.66776,69.044723 157.08008,69.083984 c -23.16867,0.05484 -45.87984,7.59054 -68.046877,24.039063 l 14.132817,8.160153 -12.216801,7.05469 c 26.929511,9.54198 47.915091,22.71833 65.320311,37.875 20.21303,-6.1813 41.91497,-8.31111 63.67188,-8.61133"
       transform="scale(0.26458333)"
       sodipodi:nodetypes="csccccc" />
    <g
       aria-label="Powered by"
       id="text2562"
       style="font-size:10.5833px;line-height:1.25;fill:#35d1ff;stroke-width:0.264583">
      <path
         d="m 10.537562,113.52961 h 1.241777 v -5.36222 h 10.329326 v -4.16277 H 10.537562 Z m 1.241777,-6.604 v -1.67922 h 9.087549 v 1.67922 z"
         style="font-size:14.1111px;font-family:'Ferrite Core DX';-inkscape-font-specification:'Ferrite Core DX, Normal'"
         id="path7010" />
      <path
         d="M 23.872548,113.52961 H 35.44365 v -7.05555 H 23.872548 Z m 1.241777,-1.24178 v -4.57199 h 9.087548 v 4.57199 z"
         style="font-size:14.1111px;font-family:'Ferrite Core DX';-inkscape-font-specification:'Ferrite Core DX, Normal'"
         id="path7012" />
      <path
         d="m 37.207534,113.52961 h 11.571102 v -7.05555 h -1.241777 v 5.81377 h -3.922886 v -5.81377 h -1.241776 v 5.81377 h -3.922886 v -5.81377 h -1.241777 z"
         style="font-size:14.1111px;font-family:'Ferrite Core DX';-inkscape-font-specification:'Ferrite Core DX, Normal'"
         id="path7014" />
      <path
         d="m 50.528415,113.52961 h 11.571102 v -1.24178 H 51.770192 v -1.67922 h 10.329325 v -4.13455 H 50.528415 Z m 1.241777,-4.13455 v -1.67922 h 9.087548 v 1.67922 z"
         style="font-size:14.1111px;font-family:'Ferrite Core DX';-inkscape-font-specification:'Ferrite Core DX, Normal'"
         id="path7016" />
      <path
         d="m 63.863402,113.52961 h 1.241777 v -3.44311 l 4.600219,-2.35655 5.729107,-0.0141 v -1.24178 h -5.968996 l -4.36033,2.286 v -2.286 h -1.241777 z"
         style="font-size:14.1111px;font-family:'Ferrite Core DX';-inkscape-font-specification:'Ferrite Core DX, Normal'"
         id="path7018" />
      <path
         d="m 77.113711,113.52961 h 11.571103 v -1.24178 H 78.355488 v -1.67922 h 10.329326 v -4.13455 H 77.113711 Z m 1.241777,-4.13455 v -1.67922 h 9.087549 v 1.67922 z"
         style="font-size:14.1111px;font-family:'Ferrite Core DX';-inkscape-font-specification:'Ferrite Core DX, Normal'"
         id="path7020" />
      <path
         d="M 90.448695,113.52961 H 102.0198 v -9.52499 h -1.24178 v 2.46944 H 90.448695 Z m 1.241777,-1.24178 v -4.57199 h 9.087548 v 4.57199 z"
         style="font-size:14.1111px;font-family:'Ferrite Core DX';-inkscape-font-specification:'Ferrite Core DX, Normal'"
         id="path7022" />
      <path
         d="m 111.37546,113.52961 h 11.5711 v -7.05555 h -10.32932 v -2.46944 h -1.24178 z m 1.24178,-1.24178 v -4.55788 h 9.08755 v 4.55788 z"
         style="font-size:14.1111px;font-family:'Ferrite Core DX';-inkscape-font-specification:'Ferrite Core DX, Normal'"
         id="path7024" />
      <path
         d="m 124.71044,115.99905 h 11.57111 v -9.52499 h -1.24178 v 5.82788 h -9.08755 v -5.82788 h -1.24178 v 7.05555 h 10.34344 v 1.22767 h -10.34344 z"
         style="font-size:14.1111px;font-family:'Ferrite Core DX';-inkscape-font-specification:'Ferrite Core DX, Normal'"
         id="path7026" />
    </g>
    <path
       sodipodi:type="star"
       style="opacity:0.99;fill:none;fill-opacity:1;stroke:#35d1ff;stroke-width:2.30462456;stroke-linecap:round;stroke-linejoin:round;stroke-miterlimit:4;stroke-dasharray:2.30462456,6.91387369;stroke-dashoffset:0;stroke-opacity:0.835294;paint-order:stroke fill markers"
       id="path1805"
       sodipodi:sides="3"
       sodipodi:cx="-211.94806"
       sodipodi:cy="-492.16095"
       sodipodi:r1="30.108742"
       sodipodi:r2="15.054371"
       sodipodi:arg1="1.0471976"
       sodipodi:arg2="2.0943951"
       inkscape:flatsided="true"
       inkscape:rounded="0"
       inkscape:randomized="0"
       inkscape:transform-center-x="-3.8963665"
       inkscape:transform-center-y="-3.8963568"
       transform="matrix(0.11480539,-0.19884878,0.19884878,0.11480539,142.5811,41.154963)"
       d="m -196.89369,-466.08601 -45.16311,-26.07494 45.16311,-26.07493 z" />
  </g>
</svg>
