<?xml version="1.0" encoding="UTF-8" standalone="no"?>
<svg
   width="210mm"
   height="65mm"
   viewBox="0 0 210 65"
   version="1.1"
   id="svg2791"
   inkscape:version="1.1 (c68e22c387, 2021-05-23)"
   sodipodi:docname="liquidMS-powered.svg"
   inkscape:export-filename="/home/martin/pictures/liquidMS-logo-export_new.png"
   inkscape:export-xdpi="100"
   inkscape:export-ydpi="100"
   xmlns:inkscape="http://www.inkscape.org/namespaces/inkscape"
   xmlns:sodipodi="http://sodipodi.sourceforge.net/DTD/sodipodi-0.dtd"
   xmlns:xlink="http://www.w3.org/1999/xlink"
   xmlns="http://www.w3.org/2000/svg"
   xmlns:svg="http://www.w3.org/2000/svg"
   xmlns:rdf="http://www.w3.org/1999/02/22-rdf-syntax-ns#"
   xmlns:cc="http://creativecommons.org/ns#"
   xmlns:dc="http://purl.org/dc/elements/1.1/">
  <defs
     id="defs2785">
    <linearGradient
       inkscape:collect="always"
       xlink:href="#linearGradient3100"
       id="linearGradient137"
       gradientUnits="userSpaceOnUse"
       gradientTransform="translate(56.668516,8.0622126)"
       x1="109.25256"
       y1="6.3877549"
       x2="109.25256"
       y2="35.010841" />
    <linearGradient
       inkscape:collect="always"
       id="linearGradient3100">
      <stop
         style="stop-color:#da9b00;stop-opacity:1"
         offset="0"
         id="stop3268" />
      <stop
         style="stop-color:#ffe510;stop-opacity:1"
         offset="1"
         id="stop3270" />
    </linearGradient>
    <linearGradient
       inkscape:collect="always"
       xlink:href="#linearGradient1827"
       id="linearGradient1919"
       x1="21.629093"
       y1="66.856934"
       x2="86.176659"
       y2="66.856934"
       gradientUnits="userSpaceOnUse" />
    <linearGradient
       inkscape:collect="always"
       id="linearGradient1827">
      <stop
         style="stop-color:#a0eaff;stop-opacity:1"
         offset="0"
         id="stop1823" />
      <stop
         style="stop-color:#00bff8;stop-opacity:1"
         offset="1"
         id="stop1825" />
    </linearGradient>
    <linearGradient
       inkscape:collect="always"
       xlink:href="#linearGradient1827"
       id="linearGradient3526"
       gradientUnits="userSpaceOnUse"
       x1="21.629093"
       y1="66.856934"
       x2="86.176659"
       y2="66.856934" />
    <linearGradient
       inkscape:collect="always"
       xlink:href="#linearGradient1827"
       id="linearGradient3528"
       gradientUnits="userSpaceOnUse"
       x1="21.629093"
       y1="66.856934"
       x2="86.176659"
       y2="66.856934" />
    <linearGradient
       inkscape:collect="always"
       xlink:href="#linearGradient1827"
       id="linearGradient3530"
       gradientUnits="userSpaceOnUse"
       x1="21.629093"
       y1="66.856934"
       x2="86.176659"
       y2="66.856934" />
    <linearGradient
       inkscape:collect="always"
       xlink:href="#linearGradient1827"
       id="linearGradient3532"
       gradientUnits="userSpaceOnUse"
       x1="21.629093"
       y1="66.856934"
       x2="86.176659"
       y2="66.856934" />
    <linearGradient
       inkscape:collect="always"
       xlink:href="#linearGradient1827"
       id="linearGradient3534"
       gradientUnits="userSpaceOnUse"
       x1="21.629093"
       y1="66.856934"
       x2="86.176659"
       y2="66.856934" />
    <linearGradient
       inkscape:collect="always"
       xlink:href="#linearGradient1827"
       id="linearGradient3536"
       gradientUnits="userSpaceOnUse"
       x1="21.629093"
       y1="66.856934"
       x2="86.176659"
       y2="66.856934" />
    <linearGradient
       inkscape:collect="always"
       xlink:href="#linearGradient1827"
       id="linearGradient896"
       gradientUnits="userSpaceOnUse"
       x1="-117.9939"
       y1="-374.09552"
       x2="69.55999"
       y2="-149.10684" />
    <linearGradient
       inkscape:collect="always"
       xlink:href="#linearGradient3100"
       id="linearGradient926"
       gradientUnits="userSpaceOnUse"
       gradientTransform="translate(56.668516,8.0622126)"
       x1="109.25256"
       y1="6.3877549"
       x2="109.25256"
       y2="35.010841" />
    <linearGradient
       inkscape:collect="always"
       xlink:href="#linearGradient3100"
       id="linearGradient928"
       gradientUnits="userSpaceOnUse"
       gradientTransform="translate(56.668516,8.0622126)"
       x1="109.25256"
       y1="6.3877549"
       x2="109.25256"
       y2="35.010841" />
  </defs>
  <sodipodi:namedview
     id="base"
     pagecolor="#ffffff"
     bordercolor="#666666"
     borderopacity="1.0"
     inkscape:pageopacity="0.0"
     inkscape:pageshadow="2"
     inkscape:zoom="1.2458995"
     inkscape:cx="437.83626"
     inkscape:cy="84.276458"
     inkscape:document-units="mm"
     inkscape:current-layer="layer1"
     inkscape:document-rotation="0"
     showgrid="false"
     inkscape:window-width="1920"
     inkscape:window-height="1028"
     inkscape:window-x="0"
     inkscape:window-y="26"
     inkscape:window-maximized="1"
     inkscape:pagecheckerboard="0" />
  <metadata
     id="metadata2788">
    <rdf:RDF>
      <cc:Work
         rdf:about="">
        <dc:format>image/svg+xml</dc:format>
        <dc:type
           rdf:resource="http://purl.org/dc/dcmitype/StillImage" />
      </cc:Work>
    </rdf:RDF>
  </metadata>
  <g
     inkscape:label="Ebene 1"
     inkscape:groupmode="layer"
     id="layer1">
    <g
       id="g1135"
       transform="matrix(1.2304271,0,0,1.2304271,6.4926419,-5.478317)"
       style="fill:#0065c5;fill-opacity:1">
      <path
         d="m 54.936307,32.067552 2.032,-4.5085 q 0,-0.0635 0.03175,-0.127 0,-0.3175 -0.47625,-0.3175 -0.508,0 -0.73025,0.508 -1.04775,2.38125 -3.20675,7.1755 1.27,-0.3175 2.3495,-2.7305 z m 1.30175,8.73125 q -0.889,2.00025 -3.429,3.429 -2.31775,1.30175 -4.41325,1.30175 -1.49225,0 -2.50825,-0.79375 -1.11125,-0.85725 -1.11125,-2.286 0,-0.47625 0.1905,-0.92075 l 5.9055,-13.23975 q 0.762,-1.68275 2.31775,-2.6035 1.42875,-0.8255 3.14325,-0.8255 1.17475,0 2.159,0.4445 1.17475,0.53975 1.17475,1.4605 0,0.3175 -0.15875,0.66675 l -2.06375,4.6355 q -1.8415,4.1275 -6.223,5.81025 l -1.651,3.71475 q -0.15875,0.3175 -0.15875,0.5715 0,0.6985 0.98425,0.6985 1.30175,0 2.8575,-0.9525 1.5875,-0.98425 2.12725,-2.25425 z"
         style="font-style:normal;font-variant:normal;font-weight:normal;font-stretch:normal;font-size:31.75px;line-height:1.25;font-family:'Deftone Stylus';-inkscape-font-specification:'Deftone Stylus, Normal';font-variant-ligatures:normal;font-variant-caps:normal;font-variant-numeric:normal;font-variant-east-asian:normal;fill:#0065c5;fill-opacity:1;stroke:none;stroke-width:0.705556;stroke-miterlimit:4;stroke-dasharray:none;stroke-opacity:0.984314"
         id="path3423-1" />
      <path
         id="path3425-2"
         style="font-style:normal;font-variant:normal;font-weight:normal;font-stretch:normal;font-size:31.75px;line-height:1.25;font-family:'Deftone Stylus';-inkscape-font-specification:'Deftone Stylus, Normal';font-variant-ligatures:normal;font-variant-caps:normal;font-variant-numeric:normal;font-variant-east-asian:normal;fill:#0065c5;fill-opacity:1;stroke:none;stroke-width:0.705556;stroke-miterlimit:4;stroke-dasharray:none;stroke-opacity:0.984314"
         d="m 62.773975,27.573299 c -0.42356,0 -1.114484,-0.01194 -1.538044,0.129151 0.306057,-0.07367 0.665855,-0.02631 0.971911,-0.02631 0.486832,0 0.872811,0.136433 1.253811,0.3481 0.381,0.211667 0.572955,0.680347 0.572955,1.082514 -0.03303,0.805159 -0.312808,1.3004 -1.02072,1.578922 -0.141576,0.06347 -1.080091,0.275184 -1.221667,0.324011 1.567654,-0.11405 2.855025,-0.45908 2.855025,-2.198216 0,-0.402167 -0.190542,-0.708691 -0.571542,-0.920358 -0.381,-0.211666 -0.814896,-0.31781 -1.301729,-0.31781 z m -3.922996,6.435561 -4.962456,8.409209 c -0.148166,0.338666 -0.222208,0.687649 -0.222208,1.047482 0,0.550334 0.179668,1.037559 0.539502,1.460892 0.359833,0.402167 0.814958,0.603065 1.365291,0.603065 1.481667,0 3.090396,-0.486709 4.826062,-1.460376 1.8415,-1.016 3.016334,-2.105919 3.524334,-3.270086 l 0.03204,-0.03204 -0.857311,-1.111044 c -0.296333,0.613834 -0.910416,1.259499 -1.841749,1.936832 -0.910167,0.677334 -1.682688,1.015958 -2.317688,1.015958 -0.3175,3e-6 -0.476457,-0.137726 -0.476457,-0.412893 0,-0.127 0.04246,-0.296312 0.127124,-0.507979 l 2.952792,-6.635771 c 0,0 -0.371971,-2.546701 -2.689274,-1.043251 z"
         sodipodi:nodetypes="scssccccssccscscccccsscccc" />
      <path
         d="m 65.731255,42.418052 2.794,-6.223 q 0.03175,-0.127 0.03175,-0.1905 0,-0.381 -0.53975,-0.381 -0.66675,0 -0.92075,0.60325 l -2.69875,6.0325 q -0.22225,0.508 -0.22225,0.92075 0,0.4445 0.381,0.4445 0.635,0 1.17475,-1.2065 z m 10.06475,-1.61925 q -0.60325,1.3335 -2.57175,2.69875 -1.93675,1.3335 -3.2385,1.3335 -0.508,0 -0.8255,-0.22225 l -2.667,5.93725 h -4.34975 l 2.25425,-5.04825 q -0.381,0.09525 -0.6985,0.09525 -3.39725,0 -3.39725,-2.286 0,-1.2065 0.889,-3.14325 l 0.4445,-0.98425 q 0.98425,-2.2225 2.57175,-3.683 1.87325,-1.74625 3.96875,-1.74625 1.55575,0 2.413,1.04775 l 0.28575,-0.635 h 2.921 l -3.33375,7.52475 q -0.15875,0.3175 -0.15875,0.508 0,0.41275 0.508,0.41275 0.92075,0 2.31775,-1.016 1.397,-1.016 1.80975,-1.93675 l 0.85725,1.11125 z"
         style="font-style:normal;font-variant:normal;font-weight:normal;font-stretch:normal;font-size:31.75px;line-height:1.25;font-family:'Deftone Stylus';-inkscape-font-specification:'Deftone Stylus, Normal';font-variant-ligatures:normal;font-variant-caps:normal;font-variant-numeric:normal;font-variant-east-asian:normal;fill:#0065c5;fill-opacity:1;stroke:none;stroke-width:0.705556;stroke-miterlimit:4;stroke-dasharray:none;stroke-opacity:0.984314"
         id="path3427-9" />
      <path
         d="m 87.829196,40.798802 q -0.79375,1.74625 -3.52425,3.27025 -2.6035,1.4605 -4.826,1.4605 -1.016,0 -1.17475,-0.9525 -1.17475,1.016 -2.57175,1.016 -3.39725,0 -3.39725,-2.286 0,-1.17475 0.889,-3.14325 l 2.667,-6.00075 h 4.15925 l -3.6195,8.09625 q -0.22225,0.508 -0.22225,0.92075 0,0.4445 0.381,0.4445 0.66675,0 1.17475,-1.2065 l 4.1275,-9.30275 3.52425,1.93675 -2.921,6.63575 q -0.127,0.28575 -0.127,0.508 0,0.41275 0.47625,0.41275 0.92075,0 2.31775,-1.016 1.397,-1.016 1.80975,-1.93675 l 0.85725,1.11125 z"
         style="font-style:normal;font-variant:normal;font-weight:normal;font-stretch:normal;font-size:31.75px;line-height:1.25;font-family:'Deftone Stylus';-inkscape-font-specification:'Deftone Stylus, Normal';font-variant-ligatures:normal;font-variant-caps:normal;font-variant-numeric:normal;font-variant-east-asian:normal;fill:#0065c5;fill-opacity:1;stroke:none;stroke-width:0.705556;stroke-miterlimit:4;stroke-dasharray:none;stroke-opacity:0.984314"
         id="path3429-3" />
      <path
         d="m 94.59192,40.798802 c -0.508,1.164167 -1.68275,2.25425 -3.52425,3.27025 -1.735667,0.973667 -3.344333,1.4605 -4.826,1.4605 -0.550333,0 -1.005417,-0.201083 -1.36525,-0.60325 -0.359833,-0.423333 -0.53975,-0.910167 -0.53975,-1.4605 0,-0.359833 0.07408,-0.709083 0.22225,-1.04775 l 4.793219,-8.0303 c 1.766199,-1.734685 2.858531,0.6643 2.858531,0.6643 l -2.95275,6.63575 c -0.08467,0.211667 -0.127,0.381 -0.127,0.508 0,0.275167 0.15875,0.41275 0.47625,0.41275 0.635,0 1.407583,-0.338667 2.31775,-1.016 0.931333,-0.677333 1.545167,-1.322917 1.8415,-1.93675 l 0.85725,1.11125 z"
         style="font-style:normal;font-variant:normal;font-weight:normal;font-stretch:normal;font-size:31.75px;line-height:1.25;font-family:'Deftone Stylus';-inkscape-font-specification:'Deftone Stylus, Normal';font-variant-ligatures:normal;font-variant-caps:normal;font-variant-numeric:normal;font-variant-east-asian:normal;fill:#0065c5;fill-opacity:1;stroke:none;stroke-width:0.705556;stroke-miterlimit:4;stroke-dasharray:none;stroke-opacity:0.984314"
         id="path3431-1"
         sodipodi:nodetypes="ccscsccccsscccc" />
      <path
         d="m 96.719121,42.862552 3.07975,-6.9215 q -0.127,-0.1905 -0.47625,-0.1905 -0.6985,0 -0.9525,0.5715 l -2.794,6.31825 q -0.1905,0.41275 -0.1905,0.6985 0,0.381 0.34925,0.381 0.60325,0 0.98425,-0.85725 z m 10.382249,-1.9685 q -0.79375,1.74625 -3.52425,3.27025 -2.6035,1.42875 -4.825999,1.42875 -1.397,0 -1.4605,-0.889 -1.23825,0.9525 -2.286,0.9525 -3.3655,0 -3.3655,-2.286 0,-1.17475 0.85725,-3.1115 l 0.4445,-1.016 q 0.98425,-2.2225 2.57175,-3.683 1.87325,-1.7145 4.0005,-1.7145 0.603249,0 1.142999,0.1905 l 4.064,-9.11225 h 4.60375 l -7.6835,17.272 q -0.0318,0.0635 -0.0318,0.127 0,0.34925 0.41275,0.34925 0.8255,0 2.19075,-0.92075 0.73025,-0.508 2.06375,-2.032 l 0.8255,1.143 z"
         style="font-style:normal;font-variant:normal;font-weight:normal;font-stretch:normal;font-size:31.75px;line-height:1.25;font-family:'Deftone Stylus';-inkscape-font-specification:'Deftone Stylus, Normal';font-variant-ligatures:normal;font-variant-caps:normal;font-variant-numeric:normal;font-variant-east-asian:normal;fill:#0065c5;fill-opacity:1;stroke:none;stroke-width:0.705556;stroke-miterlimit:4;stroke-dasharray:none;stroke-opacity:0.984314"
         id="path3433-9" />
    </g>
    <g
       aria-label="MS"
       id="text891"
       style="font-style:normal;font-weight:normal;font-size:10.5833px;line-height:1.25;font-family:sans-serif;fill:url(#linearGradient137);fill-opacity:1;stroke:#000000;stroke-width:1.05833;stroke-linejoin:round;stroke-miterlimit:4;stroke-dasharray:none;stroke-opacity:1"
       transform="matrix(1.2304271,0,0,1.2304271,-28.01334,-1.881674)">
      <path
         d="m 136.03954,41.417011 5.6224,-23.42664 h 8.43359 l 2.81119,11.71332 2.8112,-11.71332 h 8.43359 l 5.62239,23.42664 h -7.02799 l -2.81119,-11.71332 -2.8112,11.71332 h -8.43359 l -2.8112,-11.71332 -2.8112,11.71332 z"
         style="font-style:normal;font-variant:normal;font-weight:normal;font-stretch:normal;font-size:29.9861px;font-family:NiseSegaSonic;-inkscape-font-specification:'NiseSegaSonic, Normal';font-variant-ligatures:normal;font-variant-caps:normal;font-variant-numeric:normal;font-variant-east-asian:normal;fill:url(#linearGradient926);fill-opacity:1;stroke:#000000;stroke-width:1.05833;stroke-linejoin:round;stroke-miterlimit:4;stroke-dasharray:none;stroke-opacity:1"
         id="path883" />
      <path
         d="m 169.83247,25.223346 q 0,-3.367579 2.86976,-5.563827 2.89905,-2.196247 7.61366,-2.049831 4.27536,-0.146416 8.93141,0.468533 l -1.66915,5.94451 q -1.90342,-0.26355 -5.00744,-0.234266 -3.07475,0.02928 -3.36758,0.995632 -0.29284,0.966349 0.76136,1.317748 1.0542,0.322117 3.66041,0.5271 2.72335,0.204983 4.68533,1.991264 1.99127,1.756998 1.99127,5.066011 0.14641,3.455429 -2.60622,5.76881 -2.72334,2.313381 -6.44232,2.196248 -3.74827,0.351399 -10.24916,-0.3514 l 1.90342,-5.94451 q 7.40867,0.322116 8.02362,-0.702799 0.64423,-1.024916 -0.55638,-1.493448 -1.08348,-0.380683 -3.1626,-0.380683 -2.07911,-0.02928 -4.62676,-1.639865 -2.8112,-2.108398 -2.75263,-5.915227 z"
         style="font-style:normal;font-variant:normal;font-weight:normal;font-stretch:normal;font-size:29.9861px;font-family:NiseSegaSonic;-inkscape-font-specification:'NiseSegaSonic, Normal';font-variant-ligatures:normal;font-variant-caps:normal;font-variant-numeric:normal;font-variant-east-asian:normal;fill:url(#linearGradient928);fill-opacity:1;stroke:#000000;stroke-width:1.05833;stroke-linejoin:round;stroke-miterlimit:4;stroke-dasharray:none;stroke-opacity:1"
         id="path885" />
    </g>
    <rect
       style="opacity:0.99;fill:none;fill-opacity:1;stroke:#35d1ff;stroke-width:0.705556;stroke-linecap:round;stroke-linejoin:bevel;stroke-miterlimit:4;stroke-dasharray:none;stroke-opacity:1;paint-order:stroke fill markers"
       id="rect3218"
       width="86.119667"
       height="12.614053"
       x="90.749443"
       y="3.8747683"
       rx="2.7252347"
       ry="4.5119395e-14" />
    <g
       aria-label="Powered by"
       id="text3944"
       style="font-size:10.5833px;line-height:1.25;fill:#0065c5;stroke-width:0.264583">
      <path
         d="m 101.66949,6.6362238 v 2.2342666 h 2.79283 l 0.55857,-0.5585667 V 7.1947904 l -0.55857,-0.5585666 z m -0.93095,6.7028002 -0.18619,-0.186189 V 5.7052794 l 0.18619,-0.1861889 h 4.09616 l 1.30332,1.3033222 v 1.8618888 l -1.30332,1.3033222 h -3.16521 v 3.1652113 l -0.18619,0.186189 z"
         style="font-size:13.4056px;font-family:'CatV 6x12 9';-inkscape-font-specification:'CatV 6x12 9, Normal'"
         id="path26345" />
      <path
         d="m 108.93085,12.22189 h 2.23427 l 0.55857,-0.558566 V 9.429057 l -0.55857,-0.5585666 h -2.23427 l -0.55856,0.5585666 v 2.234267 z m -0.37238,1.117134 -1.30332,-1.303323 V 9.0566793 l 1.30332,-1.3033222 h 2.97903 l 1.30332,1.3033222 v 2.9790217 l -1.30332,1.303323 z"
         style="font-size:13.4056px;font-family:'CatV 6x12 9';-inkscape-font-specification:'CatV 6x12 9, Normal'"
         id="path26347" />
      <path
         d="m 117.30935,9.6152459 0.55857,1.6757001 0.55857,-1.6757001 V 7.939546 l 0.18618,-0.1861889 h 0.74476 l 0.18619,0.1861889 v 1.8618888 l -1.11713,3.3514002 -0.18619,0.186189 h -0.74476 l -0.18619,-0.186189 -0.55856,-1.6757 -0.55857,1.6757 -0.18619,0.186189 h -0.74476 l -0.18618,-0.186189 -1.11714,-3.3514002 V 7.939546 l 0.18619,-0.1861889 h 0.74476 l 0.18619,0.1861889 v 1.6756999 l 0.55856,1.6757001 0.55857,-1.6757001 V 9.0566793 l 0.18619,-0.1861889 h 0.74475 l 0.18619,0.1861889 z"
         style="font-size:13.4056px;font-family:'CatV 6x12 9';-inkscape-font-specification:'CatV 6x12 9, Normal'"
         id="path26349" />
      <path
         d="m 121.77788,9.9876237 h 3.3514 V 9.429057 l -0.55856,-0.5585666 h -2.23427 l -0.55857,0.5585666 z m 4.28235,1.1171333 h -4.28235 v 0.558567 l 0.55857,0.558566 h 3.72378 l 0.18619,0.186189 v 0.744756 l -0.18619,0.186189 h -4.09616 l -1.30332,-1.303323 V 9.0566793 l 1.30332,-1.3033222 h 2.97903 l 1.30332,1.3033222 v 1.8618887 z"
         style="font-size:13.4056px;font-family:'CatV 6x12 9';-inkscape-font-specification:'CatV 6x12 9, Normal'"
         id="path26351" />
      <path
         d="m 128.48069,7.939546 v 1.1171333 l 1.30332,-1.3033222 h 1.86189 l 1.30332,1.3033222 v 0.7447555 l -0.18619,0.1861889 h -0.74476 L 131.83209,9.8014348 V 9.429057 l -0.55857,-0.5585666 h -1.11713 l -1.6757,1.6756996 v 2.606645 l -0.18619,0.186189 h -0.74476 l -0.18619,-0.186189 V 7.939546 l 0.18619,-0.1861889 h 0.74476 z"
         style="font-size:13.4056px;font-family:'CatV 6x12 9';-inkscape-font-specification:'CatV 6x12 9, Normal'"
         id="path26353" />
      <path
         d="m 135.18349,9.9876237 h 3.3514 V 9.429057 l -0.55857,-0.5585666 h -2.23427 l -0.55856,0.5585666 z m 4.28234,1.1171333 h -4.28234 v 0.558567 l 0.55856,0.558566 h 3.72378 l 0.18619,0.186189 v 0.744756 l -0.18619,0.186189 h -4.09615 l -1.30333,-1.303323 V 9.0566793 l 1.30333,-1.3033222 h 2.97902 l 1.30332,1.3033222 v 1.8618887 z"
         style="font-size:13.4056px;font-family:'CatV 6x12 9';-inkscape-font-specification:'CatV 6x12 9, Normal'"
         id="path26355" />
      <path
         d="m 145.23768,8.8704904 h -2.79283 l -0.55857,0.5585666 v 2.234267 l 0.55857,0.558566 h 2.79283 z m -4.46853,0.1861889 1.30332,-1.3033222 h 3.16521 V 5.7052794 l 0.18619,-0.1861889 h 0.74476 l 0.18619,0.1861889 v 7.4475556 l -0.18619,0.186189 h -4.09616 l -1.30332,-1.303323 z"
         style="font-size:13.4056px;font-family:'CatV 6x12 9';-inkscape-font-specification:'CatV 6x12 9, Normal'"
         id="path26357" />
      <path
         d="M 155.29188,8.8704904 V 12.22189 h 2.79284 l 0.55856,-0.558566 V 9.429057 l -0.55856,-0.5585666 z m -1.11713,-3.165211 0.18619,-0.1861889 h 0.74476 l 0.18618,0.1861889 v 2.0480777 h 3.16522 l 1.30332,1.3033222 v 2.9790217 l -1.30332,1.303323 h -4.09616 l -0.18619,-0.186189 z"
         style="font-size:13.4056px;font-family:'CatV 6x12 9';-inkscape-font-specification:'CatV 6x12 9, Normal'"
         id="path26359" />
      <path
         d="m 160.87755,7.939546 0.18619,-0.1861889 h 0.74476 l 0.18619,0.1861889 v 3.723778 l 0.55856,0.558566 h 2.79284 V 7.939546 l 0.18618,-0.1861889 h 0.74476 l 0.18619,0.1861889 v 6.330422 l -1.30332,1.303322 h -4.09616 l -0.18619,-0.186189 v -0.744755 l 0.18619,-0.186189 h 3.72378 l 0.55857,-0.558567 v -0.558566 h -3.16522 l -1.30332,-1.303323 z"
         style="font-size:13.4056px;font-family:'CatV 6x12 9';-inkscape-font-specification:'CatV 6x12 9, Normal'"
         id="path26361" />
    </g>
    <g
       aria-label="Powered by"
       id="text3944-5"
       style="font-size:10.5833px;line-height:1.25;fill:#35d1ff;stroke-width:0.264583">
      <path
         d="m 101.33694,6.4060669 v 2.2342666 h 2.79283 l 0.55857,-0.5585667 V 6.9646335 l -0.55857,-0.5585666 z m -0.93095,6.7028001 -0.18619,-0.186189 V 5.4751225 l 0.18619,-0.1861889 h 4.09616 l 1.30332,1.3033222 v 1.8618888 l -1.30332,1.3033222 h -3.16521 v 3.1652112 l -0.18619,0.186189 z"
         style="font-size:13.4056px;font-family:'CatV 6x12 9';-inkscape-font-specification:'CatV 6x12 9, Normal'"
         id="path26364" />
      <path
         d="m 108.5983,11.991733 h 2.23427 l 0.55857,-0.558566 V 9.1989001 l -0.55857,-0.5585666 h -2.23427 l -0.55856,0.5585666 v 2.2342669 z m -0.37238,1.117134 -1.30332,-1.303322 V 8.8265224 l 1.30332,-1.3033222 h 2.97903 l 1.30332,1.3033222 v 2.9790226 l -1.30332,1.303322 z"
         style="font-size:13.4056px;font-family:'CatV 6x12 9';-inkscape-font-specification:'CatV 6x12 9, Normal'"
         id="path26366" />
      <path
         d="m 116.9768,9.385089 0.55857,1.6757 0.55857,-1.6757 V 7.7093891 l 0.18618,-0.1861889 h 0.74476 l 0.18619,0.1861889 v 1.8618888 l -1.11713,3.3514001 -0.18619,0.186189 h -0.74476 l -0.18619,-0.186189 -0.55856,-1.6757 -0.55857,1.6757 -0.18619,0.186189 h -0.74476 L 114.74254,12.922678 113.6254,9.5712779 V 7.7093891 l 0.18619,-0.1861889 h 0.74476 l 0.18619,0.1861889 V 9.385089 l 0.55856,1.6757 0.55857,-1.6757 V 8.8265224 l 0.18619,-0.1861889 h 0.74475 l 0.18619,0.1861889 z"
         style="font-size:13.4056px;font-family:'CatV 6x12 9';-inkscape-font-specification:'CatV 6x12 9, Normal'"
         id="path26368" />
      <path
         d="m 121.44533,9.7574668 h 3.3514 V 9.1989001 l -0.55856,-0.5585666 h -2.23427 l -0.55857,0.5585666 z m 4.28235,1.1171332 h -4.28235 v 0.558567 l 0.55857,0.558566 h 3.72378 l 0.18619,0.186189 v 0.744756 l -0.18619,0.186189 h -4.09616 L 120.3282,11.805545 V 8.8265224 l 1.30332,-1.3033222 h 2.97903 l 1.30332,1.3033222 v 1.8618886 z"
         style="font-size:13.4056px;font-family:'CatV 6x12 9';-inkscape-font-specification:'CatV 6x12 9, Normal'"
         id="path26370" />
      <path
         d="m 128.14814,7.7093891 v 1.1171333 l 1.30332,-1.3033222 h 1.86189 l 1.30332,1.3033222 v 0.7447555 l -0.18619,0.1861889 h -0.74476 L 131.49954,9.5712779 V 9.1989001 l -0.55857,-0.5585666 h -1.11713 l -1.6757,1.6756995 v 2.606645 l -0.18619,0.186189 h -0.74476 L 127.031,12.922678 V 7.7093891 l 0.18619,-0.1861889 h 0.74476 z"
         style="font-size:13.4056px;font-family:'CatV 6x12 9';-inkscape-font-specification:'CatV 6x12 9, Normal'"
         id="path26372" />
      <path
         d="m 134.85094,9.7574668 h 3.3514 V 9.1989001 l -0.55857,-0.5585666 h -2.23427 l -0.55856,0.5585666 z m 4.28234,1.1171332 h -4.28234 v 0.558567 l 0.55856,0.558566 h 3.72378 l 0.18619,0.186189 v 0.744756 l -0.18619,0.186189 h -4.09616 L 133.7338,11.805545 V 8.8265224 l 1.30332,-1.3033222 h 2.97903 l 1.30332,1.3033222 v 1.8618886 z"
         style="font-size:13.4056px;font-family:'CatV 6x12 9';-inkscape-font-specification:'CatV 6x12 9, Normal'"
         id="path26374" />
      <path
         d="m 144.90513,8.6403335 h -2.79283 l -0.55857,0.5585666 v 2.2342669 l 0.55857,0.558566 h 2.79283 z m -4.46853,0.1861889 1.30332,-1.3033222 h 3.16521 V 5.4751225 l 0.18619,-0.1861889 h 0.74476 l 0.18619,0.1861889 v 7.4475555 l -0.18619,0.186189 h -4.09616 l -1.30332,-1.303322 z"
         style="font-size:13.4056px;font-family:'CatV 6x12 9';-inkscape-font-specification:'CatV 6x12 9, Normal'"
         id="path26376" />
      <path
         d="m 154.95933,8.6403335 v 3.3513995 h 2.79284 l 0.55856,-0.558566 V 9.1989001 l -0.55856,-0.5585666 z m -1.11713,-3.165211 0.18619,-0.1861889 h 0.74476 l 0.18618,0.1861889 v 2.0480777 h 3.16522 l 1.30332,1.3033222 v 2.9790226 l -1.30332,1.303322 h -4.09616 l -0.18619,-0.186189 z"
         style="font-size:13.4056px;font-family:'CatV 6x12 9';-inkscape-font-specification:'CatV 6x12 9, Normal'"
         id="path26378" />
      <path
         d="m 160.545,7.7093891 0.18619,-0.1861889 h 0.74476 l 0.18619,0.1861889 v 3.7237779 l 0.55856,0.558566 h 2.79284 V 7.7093891 l 0.18618,-0.1861889 h 0.74476 l 0.18619,0.1861889 v 6.3304219 l -1.30332,1.303322 h -4.09616 L 160.545,15.156944 V 14.412189 L 160.73119,14.226 h 3.72378 l 0.55857,-0.558567 v -0.558566 h -3.16522 L 160.545,11.805545 Z"
         style="font-size:13.4056px;font-family:'CatV 6x12 9';-inkscape-font-specification:'CatV 6x12 9, Normal'"
         id="path26380" />
    </g>
    <g
       id="g3547"
       transform="matrix(1.2304271,0,0,1.2304271,34.951412,-41.904639)"
       style="fill:url(#linearGradient1919);fill-opacity:1">
      <path
         d="m 31.789093,61.221311 2.032,-4.5085 q 0,-0.0635 0.03175,-0.127 0,-0.3175 -0.47625,-0.3175 -0.508,0 -0.73025,0.508 -1.04775,2.38125 -3.20675,7.1755 1.27,-0.3175 2.3495,-2.7305 z m 1.30175,8.73125 q -0.889,2.00025 -3.429,3.429 -2.31775,1.30175 -4.41325,1.30175 -1.49225,0 -2.50825,-0.79375 -1.11125,-0.85725 -1.11125,-2.286 0,-0.47625 0.1905,-0.92075 l 5.9055,-13.23975 q 0.762,-1.68275 2.31775,-2.6035 1.42875,-0.8255 3.14325,-0.8255 1.17475,0 2.159,0.4445 1.17475,0.53975 1.17475,1.4605 0,0.3175 -0.15875,0.66675 l -2.06375,4.6355 q -1.8415,4.1275 -6.223,5.81025 l -1.651,3.71475 q -0.15875,0.3175 -0.15875,0.5715 0,0.6985 0.98425,0.6985 1.30175,0 2.8575,-0.9525 1.5875,-0.98425 2.12725,-2.25425 z"
         style="font-style:normal;font-variant:normal;font-weight:normal;font-stretch:normal;font-size:31.75px;line-height:1.25;font-family:'Deftone Stylus';-inkscape-font-specification:'Deftone Stylus, Normal';font-variant-ligatures:normal;font-variant-caps:normal;font-variant-numeric:normal;font-variant-east-asian:normal;fill:url(#linearGradient3526);fill-opacity:1;stroke:none;stroke-width:0.705556;stroke-miterlimit:4;stroke-dasharray:none;stroke-opacity:0.984314"
         id="path3423" />
      <path
         id="path3425"
         style="font-style:normal;font-variant:normal;font-weight:normal;font-stretch:normal;font-size:31.75px;line-height:1.25;font-family:'Deftone Stylus';-inkscape-font-specification:'Deftone Stylus, Normal';font-variant-ligatures:normal;font-variant-caps:normal;font-variant-numeric:normal;font-variant-east-asian:normal;fill:url(#linearGradient3528);fill-opacity:1;stroke:none;stroke-width:2.66667;stroke-miterlimit:4;stroke-dasharray:none;stroke-opacity:0.984314"
         d="m 101.15534,55.636719 c -1.600856,0 -4.00761,0.273372 -5.608465,0.80664 1.156749,-0.278433 2.312002,-0.417968 3.46875,-0.417968 1.839995,0 3.298815,0.515654 4.738815,1.315655 1.44,0.800002 2.1655,2.571391 2.1655,4.091392 -0.12485,3.043121 -1.18227,4.914898 -3.85784,5.967581 -0.53509,0.239868 -3.877624,1.358574 -4.412714,1.543118 5.924994,-0.431053 10.586034,-2.053618 10.586034,-8.626731 0,-1.52 -0.72016,-2.678515 -2.16016,-3.478515 -1.44,-0.8 -3.07992,-1.201172 -4.91992,-1.201172 z M 86.464722,78.574582 67.708984,110.35742 c -0.56,1.28 -0.839843,2.59899 -0.839843,3.95899 0,2.08 0.679062,3.92148 2.039062,5.52148 1.36,1.52 3.080156,2.2793 5.160156,2.2793 5.6,0 11.680235,-1.83953 18.240235,-5.51953 6.96,-3.84 11.400316,-7.95938 13.320316,-12.35938 l 0.12109,-0.12109 -3.24023,-4.199221 c -1.12,2.320001 -3.440942,4.760311 -6.960942,7.320311 -3.44,2.56 -6.359765,3.83984 -8.759766,3.83984 -1.199999,1e-5 -1.800781,-0.52054 -1.800781,-1.56054 0,-0.48 0.160469,-1.11992 0.480469,-1.91992 L 96.628906,82.517578 c 0,0 -1.405875,-9.625324 -10.164184,-3.942996 z"
         transform="matrix(0.26458333,0,0,0.26458333,12.826641,42.373094)"
         sodipodi:nodetypes="scssccccssccscscccccssccc" />
      <path
         d="m 42.584041,71.571811 2.794,-6.223 q 0.03175,-0.127 0.03175,-0.1905 0,-0.381 -0.53975,-0.381 -0.66675,0 -0.92075,0.60325 l -2.69875,6.0325 q -0.22225,0.508 -0.22225,0.92075 0,0.4445 0.381,0.4445 0.635,0 1.17475,-1.2065 z m 10.06475,-1.61925 q -0.60325,1.3335 -2.57175,2.69875 -1.93675,1.3335 -3.2385,1.3335 -0.508,0 -0.8255,-0.22225 l -2.667,5.93725 h -4.34975 l 2.25425,-5.04825 q -0.381,0.09525 -0.6985,0.09525 -3.39725,0 -3.39725,-2.286 0,-1.2065 0.889,-3.14325 l 0.4445,-0.98425 q 0.98425,-2.2225 2.57175,-3.683 1.87325,-1.74625 3.96875,-1.74625 1.55575,0 2.413,1.04775 l 0.28575,-0.635 h 2.921 l -3.33375,7.52475 q -0.15875,0.3175 -0.15875,0.508 0,0.41275 0.508,0.41275 0.92075,0 2.31775,-1.016 1.397,-1.016 1.80975,-1.93675 l 0.85725,1.11125 z"
         style="font-style:normal;font-variant:normal;font-weight:normal;font-stretch:normal;font-size:31.75px;line-height:1.25;font-family:'Deftone Stylus';-inkscape-font-specification:'Deftone Stylus, Normal';font-variant-ligatures:normal;font-variant-caps:normal;font-variant-numeric:normal;font-variant-east-asian:normal;fill:url(#linearGradient3530);fill-opacity:1;stroke:none;stroke-width:0.705556;stroke-miterlimit:4;stroke-dasharray:none;stroke-opacity:0.984314"
         id="path3427" />
      <path
         d="m 64.681982,69.952561 q -0.79375,1.74625 -3.52425,3.27025 -2.6035,1.4605 -4.826,1.4605 -1.016,0 -1.17475,-0.9525 -1.17475,1.016 -2.57175,1.016 -3.39725,0 -3.39725,-2.286 0,-1.17475 0.889,-3.14325 l 2.667,-6.00075 h 4.15925 l -3.6195,8.09625 q -0.22225,0.508 -0.22225,0.92075 0,0.4445 0.381,0.4445 0.66675,0 1.17475,-1.2065 l 4.1275,-9.30275 3.52425,1.93675 -2.921,6.63575 q -0.127,0.28575 -0.127,0.508 0,0.41275 0.47625,0.41275 0.92075,0 2.31775,-1.016 1.397,-1.016 1.80975,-1.93675 l 0.85725,1.11125 z"
         style="font-style:normal;font-variant:normal;font-weight:normal;font-stretch:normal;font-size:31.75px;line-height:1.25;font-family:'Deftone Stylus';-inkscape-font-specification:'Deftone Stylus, Normal';font-variant-ligatures:normal;font-variant-caps:normal;font-variant-numeric:normal;font-variant-east-asian:normal;fill:url(#linearGradient3532);fill-opacity:1;stroke:none;stroke-width:0.705556;stroke-miterlimit:4;stroke-dasharray:none;stroke-opacity:0.984314"
         id="path3429" />
      <path
         d="m 71.444706,69.952561 c -0.508,1.164167 -1.68275,2.25425 -3.52425,3.27025 -1.735667,0.973667 -3.344333,1.4605 -4.826,1.4605 -0.550333,0 -1.005417,-0.201083 -1.36525,-0.60325 -0.359833,-0.423333 -0.53975,-0.910167 -0.53975,-1.4605 0,-0.359833 0.07408,-0.709083 0.22225,-1.04775 l 4.793219,-8.0303 c 1.766199,-1.734685 2.858531,0.6643 2.858531,0.6643 l -2.95275,6.63575 c -0.08467,0.211667 -0.127,0.381 -0.127,0.508 0,0.275167 0.15875,0.41275 0.47625,0.41275 0.635,0 1.407583,-0.338667 2.31775,-1.016 0.931333,-0.677333 1.545167,-1.322917 1.8415,-1.93675 l 0.85725,1.11125 z"
         style="font-style:normal;font-variant:normal;font-weight:normal;font-stretch:normal;font-size:31.75px;line-height:1.25;font-family:'Deftone Stylus';-inkscape-font-specification:'Deftone Stylus, Normal';font-variant-ligatures:normal;font-variant-caps:normal;font-variant-numeric:normal;font-variant-east-asian:normal;fill:url(#linearGradient3534);fill-opacity:1;stroke:none;stroke-width:0.705556;stroke-miterlimit:4;stroke-dasharray:none;stroke-opacity:0.984314"
         id="path3431"
         sodipodi:nodetypes="ccscsccccsscccc" />
      <path
         d="m 73.571907,72.016311 3.07975,-6.9215 q -0.127,-0.1905 -0.47625,-0.1905 -0.6985,0 -0.9525,0.5715 l -2.794,6.31825 q -0.1905,0.41275 -0.1905,0.6985 0,0.381 0.34925,0.381 0.60325,0 0.98425,-0.85725 z m 10.38225,-1.9685 q -0.79375,1.74625 -3.52425,3.27025 -2.6035,1.42875 -4.826,1.42875 -1.397,0 -1.4605,-0.889 -1.23825,0.9525 -2.286,0.9525 -3.3655,0 -3.3655,-2.286 0,-1.17475 0.85725,-3.1115 l 0.4445,-1.016 q 0.98425,-2.2225 2.57175,-3.683 1.87325,-1.7145 4.0005,-1.7145 0.60325,0 1.143,0.1905 l 4.064,-9.11225 h 4.60375 l -7.6835,17.272 q -0.03175,0.0635 -0.03175,0.127 0,0.34925 0.41275,0.34925 0.8255,0 2.19075,-0.92075 0.73025,-0.508 2.06375,-2.032 l 0.8255,1.143 z"
         style="font-style:normal;font-variant:normal;font-weight:normal;font-stretch:normal;font-size:31.75px;line-height:1.25;font-family:'Deftone Stylus';-inkscape-font-specification:'Deftone Stylus, Normal';font-variant-ligatures:normal;font-variant-caps:normal;font-variant-numeric:normal;font-variant-east-asian:normal;fill:url(#linearGradient3536);fill-opacity:1;stroke:none;stroke-width:0.705556;stroke-miterlimit:4;stroke-dasharray:none;stroke-opacity:0.984314"
         id="path3433" />
    </g>
    <g
       id="g1013"
       transform="matrix(0.8336705,0,0,0.8336705,1.346884,9.0989151)">
      <path
         id="path1255-1-2-4-2"
         style="fill:#000080;fill-opacity:1;stroke:none;stroke-width:1.05833;stroke-linecap:butt;stroke-linejoin:miter;stroke-miterlimit:4;stroke-dasharray:none;stroke-opacity:1"
         d="m 29.602642,8.074988 c 2.140547,3.994538 3.338992,8.595448 3.338992,8.595448 0,0 4.252596,16.988138 3.178196,23.705207 0.138098,0.996438 -0.16435,4.306181 0.794804,8.035316 2.078745,9.612604 11.036305,12.131263 17.61231,10.369228 9.118112,-2.44319 12.28853,-11.968034 10.265565,-20.072849 C 60.277491,21.995829 41.673393,7.869345 29.602642,8.074988 Z"
         sodipodi:nodetypes="ccccccc" />
      <rect
         style="opacity:0.99;fill:#000080;fill-opacity:1;stroke:none;stroke-width:0.926539;stroke-linecap:round;stroke-linejoin:round;stroke-miterlimit:4;stroke-dasharray:2.77962, 2.77962;stroke-dashoffset:0.74123;stroke-opacity:0.835294;paint-order:stroke fill markers"
         id="rect1809-3"
         width="5.3878398"
         height="5.3878398"
         x="19.138472"
         y="32.833675"
         rx="0.35787907"
         ry="5.9250997e-15"
         transform="rotate(15.000002)" />
      <path
         sodipodi:type="star"
         style="opacity:0.99;fill:#000080;fill-opacity:1;stroke:none;stroke-width:7.05556;stroke-linecap:round;stroke-linejoin:round;stroke-miterlimit:4;stroke-dasharray:21.1667, 21.1667;stroke-dashoffset:5.64444;stroke-opacity:0.835294;paint-order:stroke fill markers"
         id="path1805-7"
         sodipodi:sides="3"
         sodipodi:cx="-211.94806"
         sodipodi:cy="-492.16095"
         sodipodi:r1="30.108742"
         sodipodi:r2="15.054371"
         sodipodi:arg1="1.0471976"
         sodipodi:arg2="2.0943951"
         inkscape:flatsided="true"
         inkscape:rounded="0"
         inkscape:randomized="0"
         inkscape:transform-center-x="-3.8963665"
         inkscape:transform-center-y="-3.8963568"
         transform="matrix(0.06566023,-0.11372685,0.11372685,0.06566023,83.086356,28.112913)"
         d="m -196.89369,-466.08601 -45.16311,-26.07494 45.16311,-26.07493 z" />
      <path
         style="fill:none;fill-opacity:0.835294;stroke:#6370de;stroke-width:0.926597;stroke-linecap:butt;stroke-linejoin:miter;stroke-miterlimit:4;stroke-dasharray:3.70639, 1.85319;stroke-dashoffset:3.15043;stroke-opacity:0.835294"
         d="M 32.59669,16.548887 C 25.72728,13.686567 19.07491,14.376546 12.732533,20.140163 25.735642,23.81395 30.33856,32.672499 35.774849,40.254074 34.119203,35.686364 18.913442,36.790352 11.683727,39.869634 15.949377,27.731376 25.182085,25.404263 34.477369,25.276002"
         id="path1774-5"
         sodipodi:nodetypes="ccccc" />
    </g>
    <g
       id="g1843"
       transform="matrix(0.10574762,-0.02833499,0.02833499,0.10574762,48.193923,71.722155)">
      <path
         id="path1255-1-2-4"
         style="fill:url(#linearGradient896);fill-opacity:1;stroke:none;stroke-width:8.05917;stroke-linecap:butt;stroke-linejoin:miter;stroke-miterlimit:4;stroke-dasharray:none;stroke-opacity:1"
         d="m -66.378893,-549.23107 c 7.871938,33.60057 7.619174,69.80451 7.619174,69.80451 0,0 -2.201947,133.33745 -23.343328,180.62723 -0.9481,7.60146 -9.69591,31.35014 -9.99061,60.67013 -3.655261,74.80237 57.267929,110.98276 109.110434,110.98276 71.883432,0 113.975873,-63.8113 115.069733,-127.41321 -0.2735,-131.81991 -109.273854,-272.39382 -198.465403,-294.67142 z"
         sodipodi:nodetypes="ccccccc" />
      <path
         style="fill:none;stroke:#adf7ff;stroke-width:17.6389;stroke-linecap:round;stroke-linejoin:miter;stroke-miterlimit:4;stroke-dasharray:none;stroke-opacity:1"
         d="M -0.84630809,-332.70801 C 152.65006,-316.91838 98.418532,-119.91575 -40.065339,-186.34059"
         id="path1635"
         sodipodi:nodetypes="cc" />
      <path
         style="fill:none;fill-opacity:0.835294;stroke:#35d1ff;stroke-width:7.056;stroke-linecap:butt;stroke-linejoin:miter;stroke-miterlimit:4;stroke-dasharray:28.224, 14.112;stroke-dashoffset:23.9904;stroke-opacity:0.835294"
         d="m -58.759489,-479.42634 c -44.886511,-34.59265 -95.177811,-42.62865 -153.188571,-12.73461 88.40354,52.65027 104.80096,126.88108 129.845013,193.36162 -3.1756,-36.86084 -117.197213,-58.70945 -176.444233,-50.30885 55.29918,-80.87564 127.79674,-79.79598 196.420862,-62.41936"
         id="path1774"
         sodipodi:nodetypes="ccccc" />
      <rect
         style="opacity:0.99;fill:#35d1ff;fill-opacity:1;stroke:none;stroke-width:7.05556;stroke-linecap:round;stroke-linejoin:round;stroke-miterlimit:4;stroke-dasharray:21.1667, 21.1667;stroke-dashoffset:5.64444;stroke-opacity:0.835294;paint-order:stroke fill markers"
         id="rect1809"
         width="41.028183"
         height="41.028183"
         x="-420.01944"
         y="-193.4832"
         rx="2.7252347"
         ry="4.5119395e-14"
         transform="rotate(30)" />
      <path
         sodipodi:type="star"
         style="opacity:0.99;fill:#35d1ff;fill-opacity:1;stroke:none;stroke-width:7.05556;stroke-linecap:round;stroke-linejoin:round;stroke-miterlimit:4;stroke-dasharray:21.1667, 21.1667;stroke-dashoffset:5.64444;stroke-opacity:0.835294;paint-order:stroke fill markers"
         id="path1805"
         sodipodi:sides="3"
         sodipodi:cx="-211.94806"
         sodipodi:cy="-492.16095"
         sodipodi:r1="30.108742"
         sodipodi:r2="15.054371"
         sodipodi:arg1="1.0471976"
         sodipodi:arg2="2.0943951"
         inkscape:flatsided="true"
         inkscape:rounded="0"
         inkscape:randomized="0"
         inkscape:transform-center-x="-3.8963665"
         inkscape:transform-center-y="-3.8963568"
         transform="rotate(-45,-214.06091,-495.29176)"
         d="m -196.89369,-466.08601 -45.16311,-26.07494 45.16311,-26.07493 z" />
    </g>
  </g>
</svg>
